<svg xmlns="http://www.w3.org/2000/svg" viewBox="0 0 64 64">
  <!-- Blue rounded square background -->
  <rect width="64" height="64" rx="14" fill="#2563eb"/>
  <!-- Tooth body: molar-ish shape with two humps on top (M shape) -->
  <path d="
    M13 22
    c0-5 3.5-8 7.5-8
    c2.5 0 4 1 5 2
    c0.5 0.5 1 1 1.5 1
    c0.5 0 1-0.5 1.5-1
    c1-1 2.5-2 5-2
    c4 0 7.5 3 7.5 8
    c0 7-3 14-5.5 20
    c-0.8 2-1.8 3-2.8 3
    c-1.5 0-2.2-1.5-2.6-3.5
    c-0.5-3-1.2-7.5-3.6-7.5
    c-2.4 0-3.1 4.5-3.6 7.5
    c-0.4 2-1.1 3.5-2.6 3.5
    c-1 0-2-1-2.8-3
    C16 36 13 29 13 22z
  " fill="white"/>
  <!-- Implant screw beneath — small lines -->
  <rect x="29" y="46" width="6" height="2" rx="1" fill="white" opacity="0.9"/>
  <rect x="28" y="49.5" width="8" height="1.5" rx="0.75" fill="white" opacity="0.7"/>
  <rect x="27" y="52.5" width="10" height="1.5" rx="0.75" fill="white" opacity="0.5"/>
</svg>
